<?xml version="1.0" encoding="UTF-8"?>
<svg width="513px" height="649px" viewBox="0 0 513 649" version="1.1" xmlns="http://www.w3.org/2000/svg" xmlns:xlink="http://www.w3.org/1999/xlink">
    <title></title>
    <g id="Page-1" stroke="none" stroke-width="1" fill="none" fill-rule="evenodd">
        <g id="Logo---SIWA---Logo-only---White" transform="translate(0.500000, 0.000000)" fill="#FFFFFF" fill-rule="nonzero">
            <path d="M263.599998,149.661539 C291.999998,149.661539 327.599998,129.871582 348.8,103.484976 C367.999998,79.5721114 381.999998,46.1765632 381.999998,12.7810116 C381.999998,8.24581461 381.6,3.7106176 380.8,0 C349.199998,1.23687253 311.2,21.8514091 288.399998,49.4748877 C270.4,70.5017173 253.999998,103.484976 253.999998,137.292817 C253.999998,142.240304 254.800002,147.187794 255.2,148.836956 C257.199998,149.249249 260.399998,149.661539 263.599998,149.661539 Z M163.600002,648.533333 C202.4,648.533333 219.600002,621.734434 268,621.734434 C317.200002,621.734434 328,647.708751 371.2,647.708751 C413.6,647.708751 442,607.30426 468.8,567.724349 C498.799998,522.372366 511.2,477.844968 512,475.783513 C509.200002,474.958933 428,440.738799 428,344.675058 C428,261.392329 492,223.873871 495.599998,220.987836 C453.200002,158.319643 388.8,156.670481 371.2,156.670481 C323.600002,156.670481 284.8,186.355415 260.399998,186.355415 C234,186.355415 199.2,158.319643 158,158.319643 C79.5999983,158.319643 0,225.110743 0,351.271711 C0,429.60695 29.6,512.477389 66,566.075184 C97.1999983,611.427168 124.399998,648.533333 163.600002,648.533333 Z" id=""></path>
        </g>
    </g>
</svg>