<?xml version="1.0" encoding="UTF-8"?>
<svg width="512px" height="512px" viewBox="0 0 512 512" version="1.1" xmlns="http://www.w3.org/2000/svg" xmlns:xlink="http://www.w3.org/1999/xlink">
    <title>logo_googleg_48dp</title>
    <g id="Page-1" stroke="none" stroke-width="1" fill="none" fill-rule="evenodd">
        <g id="logo_googleg_48dp">
            <path d="M501.76,261.818182 C501.76,243.665455 500.13091,226.210909 497.105454,209.454545 L256,209.454545 L256,308.48 L393.774546,308.48 C387.84,340.48 369.803637,367.592727 342.69091,385.745454 L342.69091,449.978183 L425.425454,449.978183 C473.832727,405.41091 501.76,339.781817 501.76,261.818182 L501.76,261.818182 Z" id="Shape" fill="#4285F4" fill-rule="nonzero"></path>
            <path d="M256,512 C325.12,512 383.06909,489.076363 425.425454,449.978183 L342.69091,385.745454 C319.767273,401.105454 290.443637,410.181817 256,410.181817 C189.323636,410.181817 132.887273,365.14909 112.756364,304.64 L27.2290909,304.64 L27.2290909,370.967273 C69.3527273,454.632727 155.927273,512 256,512 L256,512 Z" id="Shape" fill="#34A853" fill-rule="nonzero"></path>
            <path d="M112.756364,304.64 C107.636364,289.28 104.727273,272.872727 104.727273,256 C104.727273,239.127273 107.636364,222.72 112.756364,207.36 L112.756364,141.032727 L27.2290909,141.032727 C9.8909091,175.592727 0,214.690909 0,256 C0,297.30909 9.8909091,336.407273 27.2290909,370.967273 L112.756364,304.64 L112.756364,304.64 Z" id="Shape" fill="#FBBC05" fill-rule="nonzero"></path>
            <path d="M256,101.818182 C293.585454,101.818182 327.33091,114.734545 353.861817,140.101818 L427.287273,66.6763637 C382.952727,25.3672727 325.003637,0 256,0 C155.927273,0 69.3527273,57.3672727 27.2290909,141.032727 L112.756364,207.36 C132.887273,146.850909 189.323636,101.818182 256,101.818182 L256,101.818182 Z" id="Shape" fill="#EA4335" fill-rule="nonzero"></path>
            <polygon id="Shape" points="0 0 512 0 512 512 0 512"></polygon>
        </g>
    </g>
</svg>